<svg width="30" height="31" viewBox="0 0 30 31" fill="none" xmlns="http://www.w3.org/2000/svg">
<path d="M21 18.125C20.0625 18.125 19.1625 17.975 18.3225 17.6975C18.06 17.615 17.7675 17.675 17.5575 17.8775L15.9075 19.5275C13.785 18.4475 12.045 16.715 10.965 14.585L12.615 12.9275C12.825 12.7325 12.885 12.44 12.8025 12.1775C12.525 11.3375 12.375 10.4375 12.375 9.5C12.375 9.0875 12.0375 8.75 11.625 8.75H9C8.5875 8.75 8.25 9.0875 8.25 9.5C8.25 16.5425 13.9575 22.25 21 22.25C21.4125 22.25 21.75 21.9125 21.75 21.5V18.875C21.75 18.4625 21.4125 18.125 21 18.125ZM20.25 15.5H21.75C21.75 11.7725 18.7275 8.75 15 8.75V10.25C17.9025 10.25 20.25 12.5975 20.25 15.5ZM17.25 15.5H18.75C18.75 13.43 17.07 11.75 15 11.75V13.25C16.245 13.25 17.25 14.255 17.25 15.5Z" fill="#74C41E"/>
</svg>
