<svg width="60" height="60" viewBox="0 0 60 60" fill="none" xmlns="http://www.w3.org/2000/svg">
<path d="M43.5 35.25C41.625 35.25 39.825 34.95 38.145 34.395C37.62 34.23 37.035 34.35 36.615 34.755L33.315 38.055C29.07 35.895 25.59 32.43 23.43 28.17L26.73 24.855C27.15 24.465 27.27 23.88 27.105 23.355C26.55 21.675 26.25 19.875 26.25 18C26.25 17.175 25.575 16.5 24.75 16.5H19.5C18.675 16.5 18 17.175 18 18C18 32.085 29.415 43.5 43.5 43.5C44.325 43.5 45 42.825 45 42V36.75C45 35.925 44.325 35.25 43.5 35.25ZM42 30H45C45 22.545 38.955 16.5 31.5 16.5V19.5C37.305 19.5 42 24.195 42 30ZM36 30H39C39 25.86 35.64 22.5 31.5 22.5V25.5C33.99 25.5 36 27.51 36 30Z" fill="#0A69F9"/>
</svg>
