<svg width="202" height="164" viewBox="0 0 202 164" fill="none" xmlns="http://www.w3.org/2000/svg">
<path d="M32.9652 135C25.7335 135 19.2062 133.484 13.3833 130.453C7.5604 127.517 3.09929 123.443 0 118.233L12.5381 104.166C15.2617 107.576 18.4079 110.276 21.9768 112.265C25.6396 114.16 29.3494 115.107 33.1061 115.107C36.0176 115.107 38.5533 114.539 40.7135 113.402C42.8736 112.171 44.5641 110.513 45.785 108.429C47.006 106.345 47.6164 103.882 47.6164 101.04C47.6164 98.3878 47.0529 96.0197 45.9259 93.9357C44.7989 91.8517 43.2492 90.2886 41.277 89.2466C39.3047 88.1099 37.0037 87.5415 34.374 87.5415C31.8382 87.5415 29.4433 88.1099 27.1893 89.2466C25.0291 90.3834 23.3386 91.9937 22.1177 94.0777H2.53579L14.2286 32.6944H63.9582V53.4397H30.5703L27.7528 70.6327C28.3163 69.9696 29.3963 69.4012 30.9929 68.9276C32.6835 68.3592 34.8905 68.0751 37.6142 68.0751C44.0945 68.0751 49.8235 69.4486 54.8012 72.1957C59.7788 74.9428 63.6764 78.7793 66.4939 83.7051C69.3115 88.6309 70.7203 94.2672 70.7203 100.614C70.7203 107.434 69.0767 113.402 65.7896 118.517C62.5963 123.727 58.1822 127.753 52.5471 130.595C46.912 133.532 40.3847 135 32.9652 135Z" fill="#0A69F9"/>
<path d="M148.43 72.1957C148.43 80.5317 146.834 87.9678 143.641 94.504C140.447 100.945 136.08 106.013 130.539 109.708C124.998 113.402 118.705 115.249 111.662 115.249C104.712 115.249 98.4191 113.402 92.784 109.708C87.2428 106.013 82.8757 100.945 79.6824 94.504C76.4892 87.9678 74.8926 80.5317 74.8926 72.1957C74.8926 63.8597 76.4892 56.4709 79.6824 50.0295C82.8757 43.4933 87.2428 38.378 92.784 34.6836C98.4191 30.8945 104.712 29 111.662 29C118.705 29 124.998 30.8945 130.539 34.6836C136.08 38.378 140.447 43.4933 143.641 50.0295C146.834 56.4709 148.43 63.8597 148.43 72.1957ZM125.749 72.1957C125.749 67.7435 125.139 63.8597 123.918 60.5442C122.697 57.2288 121.006 54.6238 118.846 52.7292C116.78 50.8347 114.385 49.8874 111.662 49.8874C108.844 49.8874 106.355 50.8347 104.195 52.7292C102.035 54.6238 100.344 57.2288 99.1235 60.5442C97.9965 63.8597 97.4329 67.7435 97.4329 72.1957C97.4329 76.6479 97.9965 80.5317 99.1235 83.8472C100.344 87.1626 102.035 89.7676 104.195 91.6622C106.355 93.462 108.844 94.3619 111.662 94.3619C114.385 94.3619 116.78 93.462 118.846 91.6622C121.006 89.7676 122.697 87.1626 123.918 83.8472C125.139 80.5317 125.749 76.6479 125.749 72.1957Z" fill="#0A69F9"/>
<path d="M202 54.2922V72.4799H188.617V87.2574H168.33V72.4799H155.088V54.2922H168.33V39.5147H188.617V54.2922H202Z" fill="#0A69F9"/>
</svg>
