<svg width="277" height="164" viewBox="0 0 277 164" fill="none" xmlns="http://www.w3.org/2000/svg">
<g clip-path="url(#clip0_1_216)">
<path d="M193.437 36.7932L193.567 37.0881L193.895 37.7383L194.641 38.1289L195.234 37.7217L195.899 37.825L196.605 37.6602L197.262 37.4876L197.717 37.1588L197.796 36.6468L198.285 35.7739L197.762 35.2432L196.868 35.4788L196.374 35.9014L195.834 36.2919L195.637 36.2613L195.357 35.7932L194.704 36.266L194.249 36.5948L193.908 36.8415L193.408 36.4891L193.437 36.7932Z" fill="#0A69F9"/>
<path d="M185.387 41.2099L185.781 41.2711L186.243 41.8673L186.004 42.4295L186.616 42.8741L187.499 43.0363L187.807 43.4838L188.472 43.5871L189.294 43.4901L189.389 42.8806L188.989 42.369L189.273 42.1635L189.61 42.5904L190.489 41.4786L191.231 40.9198L191.481 41.2583L192.167 40.7406L192.447 40.2348L191.792 39.9083L191.281 40.2782L190.803 39.7796L190.175 39.2823L189.586 38.6914L189.883 38.2383L190.281 37.9505L190.432 38.9229L190.783 39.4268L191.502 39.6635L191.972 39.5617L192.341 39.6191L192.771 39.2864L192.716 38.5038L192.101 38.4082L192.355 37.7485L192.427 37.2852L191.936 37.3588L190.73 37.1713L190.275 37.5002L189.62 37.8228L189.22 37.3112L188.084 37.4842L188.056 38.1539L188.309 38.4681L188.639 38.9437L188.893 39.2578L188.421 39.5341L187.955 38.9623L187.931 38.9585L187.59 39.2051L187.257 38.7538L186.294 38.7791L185.91 38.4946L185.662 38.9554L185.912 39.2939L185.3 39.4985L185.19 40.2055L185.565 40.7132L185.387 41.2099Z" fill="#0A69F9"/>
<path d="M192.82 47.0846L193.275 46.4312L194.138 46.3906L194.947 46.2167L196.051 45.7641L195.657 44.729L194.968 44.6219L194.008 44.148L193.475 44.4898L192.968 44.8354L192.481 45.2092L192.64 45.8082L192.994 46.2877L192.633 46.8308L192.82 47.0846Z" fill="#0A69F9"/>
<path d="M184.299 41.8895L184.408 42.8055L184.901 42.882L184.977 42.3944L184.844 41.9494L184.573 41.5827L183.965 41.4382L184.299 41.8895Z" fill="#0A69F9"/>
<path d="M164 53.4166L163.205 53.9921L163.133 54.4554L163.699 54.5434L163.828 55.0128L164.354 54.8699L164.983 54.3934L165.119 53.5157L164.43 53.4085L164 53.4166Z" fill="#0A69F9"/>
<path d="M192.237 31.8623L192.545 31.6606L192.31 31.2246L192.028 31.5803L192.237 31.8623Z" fill="#0A69F9"/>
<path d="M157.922 43.2081L157.604 42.9839L157.422 43.1804L157.733 43.4534L157.922 43.2081Z" fill="#0A69F9"/>
<path d="M156.919 40.2554L157.353 40.2229L157.305 39.7162L156.896 39.7525L156.516 39.4436L156.112 39.6057L156.588 39.9542L156.919 40.2554Z" fill="#0A69F9"/>
<path d="M151.69 40.3164L152.15 40.1133L153.158 39.7955L153.908 39.8372L154.953 39.2755L155.529 38.4911L155.347 37.7138L155.09 37.0995L154.616 37.2256L154.294 36.3766L154.003 35.9817L153.508 36.4042L153.152 37.073L153.232 36.561L153.4 35.6384L153.234 35.0881L152.861 35.0551L152.245 35.6086L152.183 36.1732L151.904 36.5045L151.897 37.527L151.385 37.897L151.258 38.876L150.904 39.6949L150.599 40.5214L150.889 40.7662L151.69 40.3164Z" fill="#0A69F9"/>
<path d="M149.795 31.9069L148.941 32.0488C148.941 32.0488 148.43 32.0942 148.327 32.1033C148.225 32.1123 147.628 32.2194 147.628 32.2194L147.27 32.738L147.047 33.2027L146.638 33.5636L146.685 34.0703L145.969 34.4584L146.223 34.7725L146.689 34.6951L146.979 35.2645L146.952 35.7598L147.232 36.2278L148.083 36.4349L148.13 36.9416L148.778 36.6678L148.997 37.2013L149.764 37.6201L150.609 37.3769L151.058 36.9223L150.853 36.2912L150.463 35.5564L150.874 35.3457L151.12 34.7347L151.033 33.9971L151.217 33.3015L150.407 32.6762L149.997 33.037L149.615 33.5519L149.363 33.3879L149.67 32.7115L149.795 31.9069Z" fill="#0A69F9"/>
<path d="M147.054 44.1904L147.444 44.6006L147.955 44.2307L147.999 43.788L147.537 44.1656L147.054 44.1904Z" fill="#0A69F9"/>
<path d="M142.207 42.7629L141.793 42.6734L141.55 42.9354L141.787 43.1969L142.207 42.7629Z" fill="#0A69F9"/>
<path d="M136.027 52.8389C136.039 52.7657 136.395 52.7462 136.395 52.7462L136.408 52.1739L135.931 52.3245C135.906 52.3207 136.016 52.912 136.027 52.8389Z" fill="#0A69F9"/>
<path d="M133.785 49.0945L133.698 48.3568L133.227 48.6331L133.405 49.1102L133.785 49.0945Z" fill="#0A69F9"/>
<path d="M132.8 53.1611L132.662 53.5641L133.302 53.6636L133.573 54.0303L133.706 53.5016L133.348 53.3711L132.8 53.1611Z" fill="#0A69F9"/>
<path d="M134.374 31.6822L134.554 31.3357L134.033 30.9551L133.777 31.1401L134.025 31.3285L134.374 31.6822Z" fill="#0A69F9"/>
<path d="M127.748 57.4445L128.181 57.0874L128.401 56.6471L128.134 56.2561L127.774 56.3L127.45 56.5993L127.554 57.0649L127.748 57.4445Z" fill="#0A69F9"/>
<path d="M125.071 58.2773L125.437 58.0345L125.978 58.1186L126.514 57.7525L126.143 57.2204L125.681 57.2734L125.198 57.6228L124.698 57.9197L125.071 58.2773Z" fill="#0A69F9"/>
<path d="M124.767 53.5853L125.256 53.3616L125.799 53.5959L125.705 53.2316L124.964 52.9667L124.599 53.2096L124.767 53.5853Z" fill="#0A69F9"/>
<path d="M123.019 54.9368L123.428 54.5759L123.034 54.19L122.765 54.6227L123.019 54.9368Z" fill="#0A69F9"/>
<path d="M118.727 52.3721L119.386 52.6743L120.047 52.4774L120.413 52.5592L120.47 52.1935L119.902 51.9554L120.25 51.66L120.002 51.147L119.561 51.2282L119.421 51.1565L118.957 51.384L119.051 51.7483L118.692 52.1168L118.727 52.3721Z" fill="#0A69F9"/>
<path d="M102.365 54.4729L101.704 54.6698L101.238 54.7472L101.21 55.7415L101.204 56.265L101.583 56.4238L101.634 57.2307L102.386 57.4225L102.755 56.8307L102.481 56.1638L102.615 55.4606L102.365 54.4729Z" fill="#0A69F9"/>
<path d="M88.5047 51.3447L89.0368 51.6521L89.6107 51.3668L90.211 51.56L90.6731 50.8578L90.2622 50.0948L90.2964 49.5507L89.6658 49.228L88.8192 49.3211L88.2321 49.8541L87.7871 50.2843L87.948 51.0334L88.5047 51.3447Z" fill="#0A69F9"/>
<path d="M65.4999 46.5453L65.8692 46.2781L65.4602 45.9898L65.2784 46.1862L65.4999 46.5453Z" fill="#0A69F9"/>
<path d="M98.5138 46.4835L98.6823 47.1839L98.9418 47.2991L98.7561 48.1691L99.1216 48.5755L98.8431 48.9068L98.1974 49.0062L97.8735 49.63L98.3904 50.3596L99.0399 51.2096L99.3334 51.1054L99.6743 51.8326L100.093 51.8976L100.631 52.3308L100.559 52.794L101.244 52.6009L101.5 52.416L101.405 51.7271L101.11 51.032L101.553 50.127L101.36 49.0982L101.733 48.4821L101.877 47.5556L102.474 47.124L102.809 46.427L103.491 46.2583L103.597 45.5757L104.296 45.135L105.083 45.2574L105.701 44.5294L106.142 44.1236L106.61 44.1963L107.036 43.888L107.519 43.5386L107.79 43.9053L107.873 43.3689L107.93 43.0032L108.201 43.3699L108.644 43.4388L108.659 42.692L109.167 42.3464L109.068 42.9803L109.674 42.6501L110.436 42.294L110.542 41.6113L111.176 41.9097L111.314 41.5067L111.954 41.6062L112.632 41.7865L113.282 41.6627L113.102 41.0355L114.036 40.7062L115.193 40.8861L115.829 40.3607L117.331 40.5942L118.48 40.8228L119.024 40.4079L119.976 40.9305L121.189 40.5945L122.111 40.663L122.927 40.1157L123.825 39.5311L123.961 38.6534L123.569 37.7685L122.658 37.6269L121.641 37.8434L120.867 38.1225L120.16 38.6119L119.225 38.4665L118.53 38.5582L118.193 38.1313L117.43 38.0127L117.161 37.4715L116.454 37.3118L115.744 37.8256L114.809 37.6802L114.203 37.3613L113.252 37.638L112.735 37.5576L112.244 37.9558L111.758 38.3296L110.991 37.9107L110.904 38.4715L110.337 38.3835L109.962 37.8757L109.656 38.2276L109.974 38.7764L109.548 39.0847L109.483 39.8238L109.233 39.4853L108.438 39.4116L108.854 39.9757L107.94 39.8585L107.872 40.2974L107.231 40.1979L106.688 40.6128L105.69 40.7074L104.713 40.8301L104.667 41.1227L105.413 41.5133L105.684 41.88L104.718 41.9296L104.559 42.3044L104.076 42.6538L103.718 42.1987L102.881 42.0686L102.798 42.605L102.514 43.1351L101.891 42.7636L101.243 43.0375L101.61 43.5939L100.836 44.1977L99.9363 44.3075L99.7374 44.776L99.5063 44.6402L99.3265 44.3376L98.6239 44.1535L97.908 44.8662L97.6352 45.6478L97.9798 46.3505L98.5138 46.4835Z" fill="#0A69F9"/>
<path d="M138.056 27.1358L138.34 26.9302L137.903 26.6625L137.596 26.6897L137.368 26.8541L137.615 27.217L138.056 27.1358Z" fill="#0A69F9"/>
<path d="M145.121 27.9096L145.657 27.5434L145.707 27.2265L145.063 27.1514L144.722 27.398L144.913 27.6275L145.121 27.9096Z" fill="#0A69F9"/>
<path d="M146.032 31.6217L146.651 32.3422L147.386 31.8322L147.804 31.8972L148.526 31.6348L149.327 31.5097L149.219 30.7438L149.363 29.8173L149.891 29.5L149.554 29.073L148.888 28.1704L148.712 27.5188L148.077 27.2204L147.884 27.8146L147.28 27.9704L146.38 28.4049L146.263 29.1607L146.53 29.5518L146.019 29.9217L145.636 30.4366L145.971 31.038L146.032 31.6217Z" fill="#0A69F9"/>
<path d="M145.524 33.2655L145.753 33.5758L146.236 33.2264L146.549 32.6757L146.204 32.2975L145.468 32.0082L144.962 31.8547L144.93 32.5489L144.865 32.9633L145.524 33.2655Z" fill="#0A69F9"/>
<path d="M135.266 46.7027L134.82 46.3336L134.592 46.498L134.829 46.7595L135.266 46.7027Z" fill="#0A69F9"/>
<path d="M129.273 20.0526L129.692 20.1177L129.783 19.5326L129.436 19.3289L129.125 19.3805L129.319 19.7601L129.273 20.0526Z" fill="#0A69F9"/>
<path d="M127.415 23.0847L127.724 23.2076L128.413 23.3147L129.034 22.8869L129.492 22.5337L129.436 21.9256L128.936 21.8978L128.686 22.2085L127.851 22.2285L127.288 22.4408L127.656 22.6726L127.415 23.0847Z" fill="#0A69F9"/>
<path d="M126.483 20.9676L126.285 21.1115L126.555 21.4782L127.18 21.3506L127.256 20.863L126.911 20.8094L126.483 20.9676Z" fill="#0A69F9"/>
<path d="M124.81 22.0057L124.715 22.6152L125.217 22.7931L125.283 23.178L125.946 23.1312L126.429 22.7818L126.794 22.5389L127.021 22.0499L126.578 21.981L125.893 21.8495L125.501 21.2892L125.131 21.5564L124.81 22.0057Z" fill="#0A69F9"/>
<path d="M123.429 24.238L123.847 24.303L124.071 23.8384L123.716 23.6834L123.489 23.8479L123.429 24.238Z" fill="#0A69F9"/>
<path d="M122.695 22.626L122.925 22.9362L123.587 22.8895L123.853 22.4812L124.269 22.7208L124.11 22.1217L123.781 21.6461L123.097 21.9892L122.906 21.7598L122.241 21.6564L122.173 22.0953L121.747 22.4036L121.934 22.6574L122.695 22.626Z" fill="#0A69F9"/>
<path d="M127.694 17.8846L127.308 17.45L127.054 17.7851L127.349 18.1557L127.694 17.8846Z" fill="#0A69F9"/>
<path d="M126.304 19.691L126.781 19.5405L126.601 18.9133L126.486 18.1962L125.993 18.1196L125.91 18.656L126.372 19.2522L126.304 19.691Z" fill="#0A69F9"/>
<path d="M123.162 19.3025L122.743 19.2375L122.634 19.2953L122.946 19.7184L123.162 19.3025Z" fill="#0A69F9"/>
<path d="M123.679 20.6813L123.425 20.0426L123.109 20.2931L123.33 20.6521L123.679 20.6813Z" fill="#0A69F9"/>
<path d="M124.257 18.7485L123.929 18.7475L123.865 19.162L124.283 19.227L124.257 18.7485Z" fill="#0A69F9"/>
<path d="M124.427 19.9237L124.364 19.8391L124.311 20.1804L124.656 20.234L124.427 19.9237Z" fill="#0A69F9"/>
<path d="M124.734 20.8702L125.047 20.6441L124.585 20.6971L124.734 20.8702Z" fill="#0A69F9"/>
<path d="M125.647 19.2144L125.278 19.157L125.213 19.5714L125.575 19.6776L125.647 19.2144Z" fill="#0A69F9"/>
<path d="M125.231 18.4757L125.065 18.25L124.843 18.2156L125.004 18.6401L125.231 18.4757Z" fill="#0A69F9"/>
<path d="M120.482 20.1595L120.227 20.3445L120.556 20.8202L120.999 20.8891L121.113 20.1576L120.878 19.7216L120.482 20.1595Z" fill="#0A69F9"/>
<path d="M121.675 20.2701L121.971 20.316L122.028 19.9503L121.567 19.8289L121.675 20.2701Z" fill="#0A69F9"/>
<path d="M118.297 17.6723L118.24 18.038L117.647 17.4715L117.128 17.5656L117.187 18.3238L117.653 18.2464L117.577 18.734L118.051 18.9324L118.587 18.5663L119.244 18.3938L119.734 18.6448L120.522 18.7673L121.151 18.2907L120.713 17.6983L121.111 17.4106L120.577 16.953L120.223 17.1227L119.882 17.3694L119.829 17.7107L119.427 18.0228L118.859 17.4601L118.297 17.6723Z" fill="#0A69F9"/>
<path d="M117.591 16.8635L118.445 16.7216L118.674 17.0319L119.225 16.8928L119.413 17.1467L119.485 16.6835L119.193 16.2886L118.848 16.235L118.593 16.0954L117.928 15.9921L117.574 15.5126L117.216 16.0312L117.532 16.4299L117.591 16.8635Z" fill="#0A69F9"/>
<path d="M118.708 19.4093L118.437 19.3672L118.479 19.7482L119.016 19.8568L118.708 19.4093Z" fill="#0A69F9"/>
<path d="M119.054 20.9113L118.763 20.5164L118.681 20.2291L118.369 20.4552L118.532 20.7052L119.054 20.9113Z" fill="#0A69F9"/>
<path d="M122.135 16.8209L121.535 16.6277L121.471 17.0422L121.791 17.0919L122.135 16.8209Z" fill="#0A69F9"/>
<path d="M265.761 92.6804L265.886 91.8758L265.859 90.7481L265.706 88.9764L265.735 87.6575L265.06 86.8036L264.165 85.5907L263.521 85.191L263.33 83.6631L263.764 82.9814L263.877 82.25L264.807 82.2697L264.883 81.7821L263.747 81.3059L263.455 80.9109L262.783 80.5318L262.167 79.1377L262.126 77.4583L262.685 76.6213L263.442 76.2896L263.984 76.0492L263.802 75.2718L263.092 74.4873L261.662 74.4398L261.162 73.7629L260.429 73.4492L259.788 71.9012L259.693 70.8877L260.543 70.7702L260.985 70.0398L260.318 69.1371L259.629 69.03L259.146 69.3794L258.125 68.971L257.18 68.0751L257.127 67.118L256.232 65.9051L255.841 66.4687L255.387 66.7975L255.334 67.1389L255.523 67.8674L254.366 67.6876L253.808 66.9016L252.766 66.1405L252.783 65.2192L252.789 64.0466L252.122 63.144L251.643 62.4952L251.227 61.931L250.77 60.8114L251.282 60.4414L251.445 59.3931L251.937 59.4696L252.818 58.8324L252.108 58.3725L252.225 57.6167L251.964 56.3776L252.464 56.4053L252.943 57.0541L253.674 57.5423L253.776 56.884L253.25 55.7285L253.345 55.119L253.843 54.0228L253.468 53.5151L254.519 52.43L255.25 51.2952L256.333 51.139L257.015 51.6195L257.799 51.1171L257.424 50.6094L256.856 49.7221L256.691 48.0235L256.873 46.8532L256.192 46.0481L255.97 44.7153L255.974 43.3925L255.707 42.3523L255.639 41.1681L255.866 39.7053L255.772 38.3672L255.246 37.2117L255.586 36.965L254.725 36.1819L255.028 35.8545L255.89 35.9884L256.609 34.9267L257.471 34.7361L257.604 33.8827L257.104 33.2058L256.918 32.4528L256.178 32.8371L255.791 32.4025L255.238 32.3915L254.727 32.7614L254.013 32.6505L253.756 33.0099L253.017 32.8951L253.112 32.2856L252.193 32.1928L251.69 32.1894L251.082 32.045L250.771 32.4212L250.174 32.8528L249.284 32.7394L248.735 33.0286L248.614 33.8088L248.042 33.9196L247.737 33.4477L248.523 32.7709L248.08 32.702L247.32 32.8836L247.718 32.2713L248.637 32.0395L249.252 32.1352L250.08 31.1901L250.052 30.2369L249.913 29.0169L249.33 28.2271L248.789 27.4937L248.362 27.802L248.435 27.0142L247.819 26.9185L246.87 27.0207L246.412 26.4001L246.495 25.8638L245.8 25.6309L246.084 25.4254L246.48 25.3121L246.23 24.9736L246.34 24.5912L246.721 24.9L247.107 25.3346L247.895 25.4571L248.501 25.1268L248.978 25.6255L249.774 25.05L249.933 24.026L249.732 23.3705L250.581 22.4537L251.368 22.5762L251.946 22.9156L252.853 22.757L253.448 21.8507L254.453 21.0582L255.4 21.1304L255.933 20.1395L255.274 19.8373L255.323 19.5203L256.185 19.6543L255.991 18.9501L256.075 18.4137L255.544 18.9056L255.082 18.9586L254.666 18.0699L254.02 17.1954L253.952 17.6343L253.049 17.1193L252.492 17.4573L251.772 17.2206L252.802 16.7565L252.935 15.9031C252.935 15.9031 253.295 15.21 253.011 15.4155C252.727 15.6211 252.111 15.5254 252.111 15.5254L252.698 14.6678L252.344 14.1883L251.871 13.6653C251.871 13.6653 252.261 12.7771 251.977 12.9826C251.693 13.1882 250.973 13.2761 250.973 13.2761L250.076 14.1852L249.78 14.1393L248.739 14.3519L248.085 14.8247L247.58 15.3204L247.392 16.0403L246.956 15.9227L246.9 16.2884L247.538 16.5624L246.667 16.9763L246.307 17.6694L247.015 17.9793L248.161 18.2323L249.176 18.1903L249.1 18.6779L248.032 19.0612L247.407 19.5134L246.668 18.7494L245.687 18.8965L245.125 18.1349L244.509 18.3639L243.534 18.6368L242.674 19.3021L241.207 19.4985L240.305 20.432L239.207 20.6858L238.241 21.3846L237.303 22.0629L236.337 22.4371L235.023 22.7821L234.285 23.3165L232.665 24.4881L231.224 25.4876L230.722 26.6081L229.874 27.5249L229.514 28.2181L229.654 28.939L229.088 28.851L228.366 29.1133L228.16 29.9552L227.364 30.2061L227.046 30.9557L226.978 31.3945L227.79 31.5208L227.949 32.1198L229.01 32.1099L230.318 32.9375L230.75 33.0795L230.894 33.776L230.595 34.4037L229.752 34.4725L228.776 34.7453L228.074 34.8858L227.114 34.7366L226.593 34.0314L227.275 33.5381L226.608 32.6355L226.097 33.0055L225.529 33.7411L225.97 34.6337L225.722 35.0945L226.076 35.574L225.678 36.511L224.53 37.0817L224.405 37.8862L223.78 38.3384L223.165 38.2428L222.689 38.868L222.481 40.2089L221.621 40.8743L221.534 41.4351L221.867 41.8864L221.08 41.7639L220.25 42.2342L219.148 42.5124L218.169 41.1866L217.711 40.5661L216.571 40.4388L215.186 40.4234L214.254 41.2274L213.26 41.9468L211.991 43.2976L211.809 44.4679L210.838 45.3656L209.929 46.0233L209.059 45.9381L208.336 45.4012L207.133 45.8385C207.133 45.8385 207.211 46.7994 207.133 46.8123C207.133 46.8123 207.133 46.8123 207.109 46.8085C207.005 46.6674 206.446 45.8815 206.446 45.8815L205.777 46.4517L204.891 46.314C204.891 46.314 204.38 46.0347 204.664 45.8292C204.948 45.6237 205.393 45.1935 205.393 45.1935L204.738 44.5423L203.424 44.8873L202.498 45.1679L201.969 46.1344L201.71 46.6684L201.755 47.9988L201.634 48.779L200.842 49.3301L201.285 47.776L200.535 47.4097L199.825 47.9236L199.087 48.1334L199.553 47.0822C199.553 47.0822 200.386 46.9121 200.424 46.6683C200.462 46.4245 200.316 46.227 200.316 46.227L199.051 46.5797L197.437 46.9032L196.973 47.7799L195.729 48.1608L194.941 48.0383L194.316 48.4905L195.094 49.1608L195.13 49.7407L194.094 50.4037L193.962 51.257L194.405 51.6505L194.986 50.6672L195.244 50.9569L195.104 51.859L195.736 52.3318L196.257 53.037L196.526 53.2536L195.816 53.7674L195.035 53.5962L194.516 54.0149L194.119 54.3027L195.011 54.8908L194.916 55.5003L194.043 55.1149L193.247 55.0412L192.151 55.1205L191.422 56.0808L191.456 57.1598L190.422 56.9991L189.473 57.1013L188.994 56.4525L187.979 56.1699L187.865 56.9013L188.323 57.5219L188.236 58.0826L188.388 58.7304L188.598 60.1364L188.403 60.9051L187.543 60.272L187.117 60.5803L186.282 60.2757L185.731 59.7656L185.064 58.863L184.223 58.7573L184.326 58.099C184.326 58.099 184.14 57.6706 184.045 57.6309C184.021 57.6271 184.021 57.6271 184.013 57.6759C183.983 57.8709 183.509 57.9971 183.506 58.0215L183.006 57.3445L183.375 57.0773L183.943 56.9908L184.083 56.0887L183.729 55.6092L182.866 55.9744L182.987 55.1942L182.591 54.6583L182.123 54.5856L182.599 53.6357L181.663 53.1657L181.322 53.4123L180.518 52.5881C180.518 52.5881 180.398 52.8692 180.165 52.9079C180.141 52.9041 180.088 52.9208 180.063 52.917C180.039 52.9131 180.014 52.9093 180.014 52.9093C179.756 52.9442 179.679 53.6063 179.679 53.6063L179.321 53.8003L179.058 53.3849L179.004 53.4016L178.722 53.4326L178.474 53.8935L177.878 53.3513L177.503 52.8436L176.925 53.1533L176.509 52.5892L176.31 53.0576L175.993 53.9573L176.465 54.9794L176.463 55.8031C176.463 55.8031 176.537 56.4638 176.374 56.5383L176.349 56.5345C176.152 56.5039 175.215 56.533 175.215 56.533L174.239 57.1305L173.328 57.3135L172.957 56.4568L172.766 56.8765L172.668 57.1858L171.461 56.9983L170.878 56.2085L171.219 55.9618L170.971 55.4488L169.683 55.6232L168.087 55.6747L166.969 56.0503L166.089 56.6875L165.634 57.0164L166.117 57.6407L165.575 57.5566L165.189 56.7974L165.314 55.9928L164.939 55.4851L164.312 56.1118L164.064 56.5726L163.301 56.1294L162.638 55.8515L162.146 55.775L161.523 55.7281L161.47 56.394L161.371 56.7033L161.856 56.8286L162.106 57.1671L161.595 57.8617L160.892 58.0022L160.116 58.4558C160.116 58.4558 159.879 59.168 159.509 59.1106C159.14 59.0532 158.445 59.145 158.445 59.145L157.638 59.469L157.686 60.3003L156.898 60.5025L157.208 59.8017L157.544 58.7801L158.339 58.2046L158.779 57.3241L159.801 57.2333L160.244 56.0038L160.955 55.49L161.379 54.3824L161.443 53.9679L162.407 53.119L162.947 52.7284L163.462 52.0095L163.968 51.5138L164.093 50.7093L164.633 50.3187L164.252 49.3607L163.508 48.7955L163.237 48.4288L164.023 48.7258L164.23 47.884L163.771 47.2634L163.397 46.7557L163.052 47.0267L162.624 46.5357L162.33 45.6661L161.935 45.1302L161.249 45.3232L160.853 44.7873L159.925 45.2423L159.113 45.116L158.126 45.462L158.439 45.8852L158.136 46.5372C158.136 46.5372 157.516 46.1413 157.27 46.103C157.024 46.0648 157.157 45.5361 157.157 45.5361L157.782 45.0839L157.282 44.4069L156.494 44.2844L156.21 44.49L154.916 44.214L155.564 43.6156L156.303 43.0812L156.235 42.2216L155.608 42.1991L154.871 41.5852L154.1 42.1645L153.278 42.5861L152.428 44.002L152.129 44.6297L151.977 45.6049L152.259 45.8984L152.227 46.5926L151.932 46.5467L150.951 46.6938L150.04 46.5522L150.218 47.0293L150.653 47.4716L150.947 48.0166L150.161 47.7196L149.322 47.764L149.096 48.4032L147.824 48.1554L147.227 48.587L147.318 48.0019L147.826 47.3317L147.068 47.3388L146.803 47.7471L145.873 47.7274L144.777 47.8066L144.294 48.156L144.995 48.5146L144.703 48.7689L143.546 48.9137L143.091 49.2425L141.531 49.2247L141.019 49.5947L139.819 49.8575L139.232 50.7151L138.082 50.4865L138.037 51.1036L138.595 51.2404L137.961 51.5912L137.455 52.0869L137.747 52.4818L137.446 52.9594L137.709 53.3748L137.197 53.4202C137.197 53.4202 137.292 52.8107 136.947 53.0817C136.603 53.3527 136.408 53.4722 136.408 53.4722L136.762 53.9518L137.228 54.1989L137.551 54.8735L137.069 55.2229L136.281 55.1005L135.154 55.3748L133.554 55.126L133.516 55.3698L132.588 54.8511L130.668 54.5526L129.741 55.1577L129.779 56.2123L130.05 56.579L129.556 57.3262L129.158 58.2631L129.429 58.6298L129.851 59.6443L130.593 60.0593L130.457 60.6124L130.805 61.2908L130.531 61.9223L129.423 61.7501L128.819 60.9321L128.59 60.6218L129.01 59.8631L128.039 59.1378L127.58 58.5173L126.876 58.5077L126.09 58.2107L125.55 58.6012L125.528 59.0721L125.616 59.6353L125.056 59.9976L124.493 59.236L124.139 58.7565L123.2 59.2846L123.355 60.2326L123.876 60.9378L123.827 61.2548L124.508 61.7353L124.904 62.2712L125.076 62.9472L125.001 63.4348L124.414 62.6694L123.872 61.936L123.171 62.2266L122.743 61.7356L121.984 60.9434L122.098 60.212L122.257 59.188L123.109 58.5714L123.444 57.5498L123.626 56.3795L123.956 55.5568L123.291 55.4535L122.901 56.0171L123.09 56.7457L122.638 57.5492L122.024 58.2529L121.162 58.119L119.969 58.9822L119.202 59.5372L119.702 60.2141L119.475 61.0278L119.6 61.8462L119.755 62.7942L118.817 63.4725L118.285 64.4634L117.579 65.2775L117.501 66.5888L116.933 66.9999L116.935 67.7992L117.673 67.914L117.925 68.4026L118.586 68.2057L119.126 67.8151L119.605 68.4639L120.561 68.9621L120.832 69.3288L121.298 69.9006L121.591 70.7702L121.193 71.3826L121.318 72.201L120.989 72.6991L120.294 72.7908L120.254 73.5337L120.178 74.0213L120.47 74.4162L121.364 74.8298L121.276 75.3906L120.371 75.0501L119.684 74.1193L119.779 73.5098L119.881 72.5269L120.648 71.972L120.353 70.6277L120.019 70.1763L119.87 69.3541L118.915 69.3306L118.054 69.1966L117.429 69.6488L116.804 70.101L116.756 70.8926L116.821 71.7766L116.423 72.7135L115.826 73.1451L115.088 73.6795L114.662 73.9879L114.529 74.8412L113.648 75.1537L112.569 75.2856L112.285 75.4911L111.743 75.4069C111.743 75.4069 111.111 75.5833 111.232 75.7769C111.353 75.9705 110.974 76.461 110.974 76.461L110.236 76.3462L109.849 75.587L109.152 75.5286L108.427 74.8416L107.857 74.4533L107.386 73.4312L107.507 72.651L108.092 72.9417L108.467 73.4495L109.088 73.9955L109.768 73.6767L110.772 74.0324L111.387 73.8035L112.143 72.9971L113.365 72.1133L114.313 72.0111L114.721 70.5263L115.738 69.9852L115.963 69.3461L115.359 68.528L115.23 67.4094L115.672 66.679L116.354 65.2119L116.922 63.5024L117.924 62.4097L118.291 61.3432L118.753 59.9917L118.159 59.2751L118.642 58.2765L120.005 57.2899L120.434 55.8333L120.916 55.4839L120.763 54.0368L119.902 53.9029L119.485 53.3387L118.5 53.1857L118.114 52.4265L117.262 52.7185L116.667 53.6248L116.097 54.535L115.373 55.6211L114.578 56.1966L114.237 56.4432L113.283 56.7443L112.425 56.9106L111.894 57.4024L111.474 58.1611L111.989 58.4159L111.894 59.0254L111.449 59.4557L111.101 60.4002L110.998 61.0585L110.121 61.3467L109.667 61.6756L109.974 62.6221L110.678 63.281L110.328 64.4001L110.608 65.5173L111.242 65.8157L110.174 66.5236L110.041 67.3769L109.153 67.7382L108.727 66.7481L108.852 65.9436L108.307 64.91L107.801 63.7827L106.989 62.6826L106.631 61.5782L105.965 60.6756L105.152 59.5755L104.474 58.4215L104.105 58.6886L103.459 57.8142L102.789 57.9098L101.994 58.1607L101.935 59.3501L101.611 60.2985L100.804 60.2979L100.702 60.9562L99.9197 60.6349L99.522 60.9226L99.3553 61.6708L98.6698 60.8901L98.7759 60.2074L99.5088 59.8719L99.7191 59.3303L99.3442 58.8225L98.2079 58.9955L97.3462 58.8616L96.8349 59.2315L95.7518 57.7648L94.6042 57.3616L93.2898 57.7067L92.6251 57.6034L91.8223 56.6046L92.468 56.5053L92.8279 55.8121L93.6157 55.9346L93.4833 54.8403L92.7939 54.7331L91.4247 54.9448L91.311 55.6762L90.8925 55.6111L90.5744 54.7377L89.6635 54.5961L88.1429 54.16L87.2547 54.1967L85.6999 53.6554L85.7699 54.3405L84.8117 53.6921L83.7152 53.7714L83.6016 54.5028L82.4918 54.8297L81.6453 54.2736L80.7477 53.8844L80.8727 53.0799L80.7043 52.0549L80.8672 51.0066L82.2403 50.7705L83.0716 51.0995L83.5923 51.8047L84.0184 51.4964L84.3783 50.8032L84.6133 49.2916L84.0869 48.1361L83.2954 47.0642L83.1534 46.5178L82.341 46.3915L82.3618 47.3935L82.2026 48.4175L81.0739 48.8663L80.9715 49.5246L79.8296 49.8964L79.4034 50.5293L79.2442 51.5533L78.2499 52.5973L77.2348 52.6392L76.411 53.2353L75.7955 53.7888L75.9357 52.8868L76.5891 52.414L76.0627 51.2585L75.667 50.7226L74.8792 50.6001L73.7183 50.7693L72.8169 50.0798L71.567 50.335L70.3171 49.9409L70.0481 51.3473L69.2716 51.801L69.4609 52.5295L69.0632 52.8173L67.9345 52.2923L67.6354 51.2969L67.0314 50.4789L66.9955 49.2498L67.0335 47.383L66.3196 47.2721L65.5166 47.8963L65.4104 48.579L65.1964 49.4696L65.6546 50.0901L65.2985 51.0835L64.1508 51.6542L63.3801 50.6105L62.672 49.6515L63.297 48.8747L63.4258 48.695L63.1059 46.6976L63.9865 46.0605L64.121 45.6819L64.5056 44.6679L65.4146 44.0102L66.4695 43.8745L67.2328 42.6948L67.5453 41.8195L67.0454 41.1425L67.5568 40.7726L67.6913 39.7447L67.6592 38.8159L68.1137 38.487L68.4945 37.8221L68.9735 38.4708L68.4338 38.8614L68.0928 39.7572L68.6211 40.089L68.6816 41.6465L69.083 42.6328L69.2534 43.4833L69.49 44.394L70.1565 45.2966L69.986 46.3937L70.6317 47.2682L71.7319 48.1383L72.7753 48.725L74.0934 48.6802L75.2505 48.86L76.5005 47.9557L77.4077 46.8232L77.8074 45.3872L77.9968 44.4928L77.3928 43.6748L77.5615 42.4275L77.4024 41.8285L77.7585 40.8352L77.9405 39.6649L77.7985 38.4693L77.2153 37.6795L77.3707 36.6799L76.8253 36.2955L76.9579 35.4422L76.4997 34.8216L75.8672 34.3487L75.9885 33.5686L75.9128 32.7578L76.4242 32.3878L76.8199 32.9238L77.2176 33.2852L77.1343 32.5232L77.2291 31.9137L76.2519 31.7118L75.5512 31.6778L75.8562 30.8513L75.0664 31.2279L74.5874 30.5792L73.898 30.472L72.7845 29.8495L70.9286 30.4349L69.5215 30.8904L69.1804 33.0846L68.3376 34.1272L66.245 33.8019L64.7962 34.8502L64.5802 35.5906L62.618 38.1571L61.978 37.733L60.372 38.657L59.7489 38.6101L59.7243 38.6062L59.5083 39.9959L58.7242 40.1737L58.5613 41.222L57.4553 41.8492L56.2982 41.6693L55.5859 44.3052L55.4229 45.3536L53.6049 45.6952L53.5803 45.6914L44.4145 44.3166L44.8614 45.0103L45.7154 45.5176L45.4882 45.682L44.7969 45.7494L44.5809 47.1391L45.2172 47.9121L45.1091 49.0939L44.5409 49.505L44.346 48.6507L44.1396 47.8695L43.2742 47.4353L42.8027 46.7378L42.1626 46.3137L41.7365 46.622L41.4694 47.2048L40.3995 46.7888L39.5113 47.1501L38.5833 46.9559L37.75 47.7752L36.8391 47.9582L36.6951 48.5601L36.1686 49.0276L35.127 48.9156L34.6327 49.3382L34.5001 50.1915L33.4206 50.6479L32.7293 50.7153L32.8126 51.4773L32.2444 52.213L31.3353 52.8707L31.1251 53.4123L31.3693 54.2742L31.8484 54.923L31.5491 55.5507L31.2082 56.1219L31.9657 56.4394L32.5527 57.2048L32.3367 58.5945L31.4465 59.1303L31.0564 59.6939L30.2061 59.8114L29.7458 60.6638L29.1397 61.6433L28.7419 62.5802L28.685 63.2705L28.2211 63.498L28.7418 64.2032L28.3554 65.067L28.0334 65.841L27.2077 65.9623L26.4407 65.5434L26.2893 64.8957L25.9219 64.3392L25.2989 64.2923L24.9882 64.9931L24.3519 65.5184L23.4428 66.1761L22.9712 66.777L23.2458 67.4439L23.6207 67.9516L24.2343 67.5726L24.5202 68.1664L24.8876 68.7228L25.4917 68.8917L25.8666 69.3994L26.0616 70.2537L25.8854 70.9005L25.4194 71.9517L25.0009 72.2112L24.5085 72.1347L24.1676 72.7059L23.6998 72.9578L24.0368 73.7094L24.3549 74.5828L24.2223 75.4361L23.6635 76.2731L23.0272 76.7985L23.1369 77.3898L23.6766 77.9731L23.828 78.9455L24.6328 79.7697L25.3335 80.4529L25.3826 81.759L25.0038 82.574L25.5548 83.4088L26.1134 83.8701L26.2156 84.8349L26.7666 85.6696L26.634 86.5229L27.274 86.947L26.8233 87.2515L26.4217 87.8882L24.8651 87.846L24.812 88.5119L24.2571 88.3508L23.6037 88.8235L23.6358 89.7524L22.9635 90.0224L21.9124 90.7829L21.0906 89.5815L20.5358 88.7711L19.801 88.9565L19.0625 88.5171L18.0871 88.79L17.3694 89.3526L17.8352 89.5998L18.2101 90.1075L18.8729 90.3853L19.3085 90.8276L19.0224 91.5322L18.3786 91.1325L17.462 90.8652L16.9337 90.5334L16.5076 90.8417L16.0834 90.3263L15.6895 89.9405L15.2085 89.7908L14.9528 90.3004L15.1781 90.9596L14.8959 91.9645L14.3107 91.6738L13.8183 91.5972L12.8752 91.5006L12.1404 91.686L11.7503 92.2496L11.1651 91.9589L10.6255 91.051L10.1217 91.0476L9.61037 91.4176L9.68227 92.2527L9.32239 92.9459L9.54011 93.6539L9.96427 94.1693L9.70093 95.3768L10.0247 96.0514L10.2386 96.7838L10.195 98.2002L9.78007 100.058L9.94852 101.083L10.5015 101.094L10.8329 101.72L11.0885 102.184L11.5202 102.326L11.5921 103.162L12.0636 104.184L12.2074 105.205L13.0236 105.956L13.5936 106.344L13.8189 107.328L14.421 107.996L14.1236 108.774L14.6065 109.398L14.578 110.717L15.057 111.366L15.949 111.629L16.3864 112.222L16.4659 112.683L17.1439 112.864L17.2271 113.626L17.7403 114.38L17.388 115.024L16.9239 115.576L17.3765 116.396L17.5639 117.299L17.4805 117.835L18.077 118.377L17.9993 119.364L18.234 120.774L18.2358 121.573L19.1164 121.91L20.1012 121.738L20.7204 122.134L21.7734 121.848L21.9004 120.545L22.2356 119.523L22.2055 118.095L22.3836 116.949L23.5219 115.628L23.9972 115.327L24.0427 115.035L24.5825 114.644L24.8893 113.968L25.2075 113.218L25.0826 112.4L24.7077 111.892L24.8214 111.161L25.3043 110.811L25.7777 111.01L26.6773 110.9L27.4651 111.022L28.2795 110.325L28.8836 110.169L28.9708 109.608L29.6904 109.845L29.9403 110.184L30.5293 110.45C30.5293 110.45 30.4099 110.731 30.7792 110.788C31.1485 110.846 31.6731 110.877 31.6731 110.877L32.0424 110.935L32.4855 111.004L33.0517 111.092L33.7524 111.126L34.2354 110.776L33.798 110.184L33.5632 109.423L33.603 108.68L34.2071 108.849L34.5574 109.353L35.0688 108.983L35.2431 107.862L35.2376 106.438L35.5975 105.42L35.1809 104.856L34.5068 104.002L34.0144 103.601L34.6394 103.148L35.0486 102.138L34.5487 101.461L34.3991 100.639L35.132 100.304L35.757 99.8514L36.488 100.015L37.2228 99.8296L37.3365 99.0982L37.9615 98.646L38.7001 98.1116L39.4879 98.234L40.0902 97.9281L40.4879 97.3158L41.1772 97.4229L41.5521 97.9307L41.1601 98.6687L41.035 99.4733L41.5349 100.15L42.5178 100.478L42.7129 99.7091L43.3379 99.2569L43.603 98.8487L44.5385 98.9941L45.4002 99.1281L45.9135 98.5836L46.7751 98.7175L47.5193 99.2827L48.5041 99.1111L49.1007 98.6795L50.0797 99.0315L50.2501 99.8819L50.1288 100.662L50.6951 100.75L51.7063 100.733L52.1646 101.353L52.3539 102.082L53.2818 102.6L53.7836 103.428L53.7854 104.551L54.0409 105.665L54.2549 106.397L53.6867 106.808L53.5844 107.467L54.126 107.551L54.7434 106.823L55.338 107.539L55.6864 108.542L56.3454 108.845L57.226 108.857L58.2297 108.563L58.8622 109.036L59.5553 109.768L59.7559 110.423L60.5892 110.253L61.5247 110.399L61.9621 110.991L61.803 112.015L62.3237 112.72L62.3994 113.206L63.0659 114.109L63.7799 114.22L64.2912 113.85L64.7098 113.915L64.9275 114.623L65.3232 115.159L66.2663 115.256L67.1772 115.397L67.8022 114.945L68.4897 114.253L68.0106 113.604L67.9444 112.895L67.6112 112.443L67.1321 111.795L66.9693 111.22L67.422 110.416L68.2041 110.738L68.9237 110.65L69.3328 109.964L69.1966 108.895L69.9314 108.709L70.9975 108.825L71.5808 109.615L72.147 109.703L72.7436 109.271L72.2853 108.651L71.9104 108.143L71.5127 107.781L72.1661 107.309L71.9655 106.653L72.4011 105.797L73.2628 105.931L74.1225 106.564L74.7 107.228L75.4689 107.148L76.4726 107.504L77.8834 107.673L78.7735 108.111L79.4628 108.218L80.1862 108.755L81.0251 108.711L81.5649 108.32L82.008 108.389L82.9832 109.09L84.0911 109.262L85.0285 109.233L85.7026 109.762L86.6514 109.66L87.6854 109.821L88.2839 109.215L89.1834 109.429L89.9201 110.043L90.9541 110.204L91.2096 110.993L91.9482 111.108L92.5182 111.496L92.6791 112.57L92.395 113.1L92.2737 113.88L91.6771 114.312L91.7888 115.053L92.6618 115.438L93.55 115.077L94.0499 115.754L93.6313 116.663L94.4058 117.033L94.9172 116.663L95.5875 117.217L96.3999 117.343L96.3128 117.904L95.2598 118.189L94.8431 119.248L95.5324 119.355L96.4585 119.075L96.7993 119.802L97.8674 119.419L99.0738 119.282L99.8692 118.706L100.513 118.781L101.382 118.866L102.093 118.353L102.831 118.467L102.941 119.059L102.346 119.64L101.78 119.552L101.666 120.284L102.31 120.684L102.748 121.276L103.06 122.348L103.435 122.856L104.018 123.646L104.257 125.356L104.048 126.697L104.618 127.41L104.466 128.385L104.966 129.711L105 130.79L105.152 131.762L105.53 132.895L106.468 132.866L107.055 132.008L107.75 131.916L108.11 132.522L108.015 133.131L108.39 133.639L108.807 134.203L109.744 134.174L110.098 134.654L111.159 134.644L111.755 134.212L112.789 134.373L113.206 134.937L113.916 135.397L114.399 136.021L114.419 137.023L115.041 137.569L115.247 138.35L116.025 139.021L115.874 139.996L116.936 140.461L117.871 140.931L118.994 140.681L119.733 140.146L119.78 140.653L119.826 141.01L120.025 141.515L120.169 141.887L120.443 142.554L121.594 142.933L122.219 142.48L123.341 142.08L124.564 142.32L125.359 141.745L126.354 141.675L126.659 140.848L127.471 140.975L128.408 140.296L129.895 139.653L130.954 139.818L131.382 139.011L132.293 139.152L133.117 138.556L133.942 139.084L134.525 139.874L135.701 139.607L136.592 140.045L137.258 140.948L137.82 141.709L138.938 142.307L139.712 142.678L140.9 142.662L141.962 143.127L143.144 143.311L143.931 143.433L145.011 142.652L146.07 142.168L146.221 141.192L145.617 140.374L145.757 139.472L145.335 138.782L145.67 137.761L146.295 137.309L146.972 136.365L147.71 135.831L148.25 135.44L149.079 136.268L150.68 136.517L151.346 137.42L152.549 137.307L153.583 137.468L154.577 138.047L155.223 138.921L155.62 140.256L156.162 140.99L157.103 141.585L158.561 141.937L159.641 141.805L160.737 141.726L161.845 140.924L163.002 141.104L164.939 141.13L165.449 141.584L166.846 142.001L168.397 142.242L168.876 142.891L169.102 143.55L170.153 144.088L171.41 144.109L173.084 144.369L174.323 144.187L175.628 144.39L176.224 143.958L177.389 143.116L178.788 142.709L179.826 142.196L180.65 141.6L181.18 140.459L181.891 139.945L182.885 139.226L183.987 138.948L184.729 139.363L185.523 139.935L186.782 139.457L187.671 139.096L188.748 139.463L190.255 139.822L191.685 139.545L192.594 138.887L193.333 137.704L194.233 137.594L194.411 136.448L194.098 136.025L193.665 134.759L194.286 133.682L194.457 132.585L194.976 130.868L195.402 130.235L195.283 128.893L194.803 128.244L194.366 127.652L193.646 128.064L193.29 127.434L193.735 126.68L194.387 125.408L195.126 124.873L196.523 124.316L197.29 123.761L198.853 122.956L199.887 123.116L200.872 122.945L202.072 123.331L203.14 122.948L204.002 123.082L205.625 123.509L206.041 124.073L206.797 124.565L206.984 125.468L207.857 125.853L208.42 126.615L209.242 127.492L209.509 128.532L210.467 128.856C210.467 128.856 211.16 129.588 211.133 129.759C211.107 129.929 211.736 130.426 211.736 130.426L212.235 131.103L212.597 132.183L213.79 132.618L215.089 132.371L215.601 132.001L216.708 132.173L217.917 132.186L218.674 132.504L219.572 132.893L220.112 132.502L220.964 132.86L221.422 133.48L221.999 134.144L221.855 135.071L222.391 135.354L223.111 135.915L223.899 136.038L224.209 135.337L224.986 135.208L225.923 134.854L226.891 134.305L226.73 133.232L227.613 132.42L228.44 131.475L228.812 130.709L229.88 130.325L230.569 130.432L230.658 130.996L231.158 131.673L231.595 132.265L231.455 133.167L230.893 133.704L231.572 134.683L231.629 135.616L231.951 136.465L231.676 137.097L232.121 137.965L232.051 138.903L232.33 139.87L231.877 140.673L232.382 141.801L231.899 142.475L231.218 142.968L230.562 142.641L229.848 142.855L229.195 143.328L229.07 144.132L228.559 144.502L227.962 144.934L227.865 145.718L228.566 146.077L229.233 146.979L229.458 147.963L229.833 148.471L230.583 149.486L230.878 150.506L230.753 151.311L230.109 152.209L229.67 153.09L229.94 153.456L230.721 153.628L230.823 152.969L230.887 152.555L231.285 152.267L231.628 151.521L231.562 150.812L231.893 149.815L231.958 149.4L232.416 150.021L232.707 150.416L232.825 149.66L233.251 149.027L233.501 149.366L233.418 149.902L233.971 150.238L234.908 149.884L236.006 149.63L236.548 149.714L237.342 148.664L238.061 147.602L239.082 146.388L239.226 145.461L239.603 143.522L239.592 141.973L240.066 140.548L240.369 138.598L240.615 137.013L240.986 136.247L241.225 134.711L241.225 133.088L241.161 131.879L241.042 130.537L240.78 129.298L241.065 127.794L240.849 126.262L241.322 124.838L241.588 123.131L241.046 122.398L240.465 121.109L240.355 120.518L239.941 119.454L239.253 118.523L239.162 117.81L238.808 117.331L237.933 116.146L237.282 114.821L236.994 113.104L237.11 111.548L236.813 110.703L236.479 110.252L235.701 110.231L235.18 109.526L235.091 108.962L234.353 108.848L233.664 108.741L233.978 108.34L234.319 108.093L234.773 107.764L234.336 107.172C234.336 107.172 233.732 107.328 233.51 107.293C233.289 107.259 232.327 107.284 232.327 107.284L231.993 106.833L231.122 106.598L230.064 106.433L229.122 106.487L228.611 106.857L227.808 107.156L228.126 108.03L228.389 108.77L228.723 109.221L228.518 109.888L228.092 109.547L227.759 109.745L227.221 110.286L227.156 110.7L226.295 110.891L226.378 110.355L226.492 109.623L226.283 109.341L226.026 109.376L225.59 108.934L225.655 108.519L225.136 108.938L225.041 109.548L225.569 109.879L225.467 110.538L224.956 110.908L224.539 110.344L224.255 109.575L224.339 109.039L223.884 108.719L223.53 108.239L222.848 108.732L222.223 109.185L221.559 109.081L220.99 109.492L220.375 109.397L220.134 108.51L220.595 107.658L220.75 106.658L221.525 105.73L221.703 104.584L222.288 103.252L222.455 102.179L222.606 101.204L222.256 100.7L222.472 99.3103L222.878 98.3246L223.105 96.8618L223.275 95.7647L223.893 95.0367L223.414 94.3879L223.189 93.404L223.586 92.1425L224.297 91.6287L223.833 90.2332L224.164 88.9114L225.07 87.6288L225.865 87.0533L226.7 86.0595L227.382 85.5663L228.462 84.7852L229.397 84.9306L230.155 84.5989L229.946 84.3169L229.71 83.7307L230.27 83.3684L230.763 83.445L231.412 82.9966L232.151 82.4622L232.016 81.5424L232.829 81.9933L233.458 81.5167L233.083 81.009L233.007 80.1982L233.299 79.6193L233.924 79.1671L234.615 79.0998L235.287 78.5052L236.528 78.1486L236.585 77.7829L237.391 77.7835L238.175 77.6057L238.425 77.9442L237.702 78.0565L237.446 78.5661L237.363 79.1024C237.363 79.1024 237.874 79.3817 237.675 79.5255C237.476 79.6694 238.471 79.5992 238.471 79.5992L238.887 78.865L239.016 78.0361L239.853 77.8416L240.071 77.2512L239.995 75.7912L241.257 75.7875L241.431 74.666L242.126 74.5743L242.297 73.8017L241.681 73.7061L241.283 73.9938L240.747 74.36L240.194 74.3489L239.715 73.7002L239.829 72.9688L239.246 72.1789L239.274 70.5354L239.464 69.3164L238.903 68.0557L239.205 66.9289L238.542 66.3265L238.769 64.5391L239.296 64.0716L239.873 62.7881L239.976 62.1298L241.084 62.302L241.555 61.3766L241.375 60.4247L242.37 61.653L242.583 62.3854L242.938 62.8649L243.458 63.5701L243.617 62.5461L244.299 63.0266L244.494 63.8809L244.934 63.0003L245.098 61.4529L244.832 60.4126L245.032 59.1205L244.595 58.5281L245.072 58.053L245.434 58.1591L245.591 57.6342L244.779 57.508L244.196 56.7182L243.592 55.9002L243.167 55.3848L243.516 54.7648L243.649 53.9115L244.635 53.5654L245.374 53.031L245.603 53.3413L244.701 53.9503L244.557 54.8767L245.336 55.547L245.788 56.3665L246.184 56.9024L246.671 57.1778L247.212 57.262L247.595 58.3702L248.011 58.9343L247.905 59.617L247.818 60.1777L247.371 61.107L247.295 61.9192L247.723 62.4102L247.981 63.9983L248.24 65.0874L248.412 66.4125L248.524 67.8032L249.152 68.9497L249.41 70.5378L249.406 71.8605L249.635 73.1446L249.294 73.3913L248.868 73.6996L249.156 74.4435L248.766 75.007L248.368 75.2948L248.315 75.6361L249.051 75.9254L249.589 77.0078L249.568 77.9534L250.047 78.6021L249.915 79.4554L250.594 80.435L251.594 81.789L251.984 82.8484L252.978 83.752L254.041 84.5414L255.73 85.3533L256.516 85.6502L257.179 86.2526L257.527 86.931L258.953 87.9767L260.22 88.7479L261.545 89.6281L262.17 90.4743L262.983 90.6006L263.483 91.2776L264.185 91.7863L265.367 91.97L265.761 92.6804Z" fill="#0A69F9"/>
<path d="M224.333 105.667L223.928 106.004L223.852 106.491L223.769 107.028L224.401 106.851L224.672 107.218L225.094 106.934L225.352 106.25L225.045 105.628L224.333 105.667Z" fill="#0A69F9"/>
<path d="M252.244 124.488L251.479 123.895L250.939 124.285L250.155 124.138L249.937 123.43L249.322 123.335L248.863 122.714L247.952 122.572L247.398 122.087L246.794 121.269L246.398 120.733C246.398 120.733 246.402 119.735 246.544 119.632C246.657 119.55 246.19 118.828 246.19 118.828L245.718 117.806L245.783 117.391L246.014 116.878L245.98 116.123L246.521 116.208L247.22 116.091L247.618 115.804L247.838 115.363L246.913 114.82L246.419 114.269L245.616 113.595L244.666 112.898L243.98 112.117L242.876 111.271L242.111 110.353L241.229 109.867L240.591 109.593L239.699 108.355L239.24 107.735L239.044 106.73L238.72 106.056L238.227 105.979L237.341 105.192L237.207 104.597L236.347 104.289L235.931 103.725L235.771 103.126L235.338 102.833L234.465 102.448L234.381 102.984L234.508 103.628L234.815 103.601L235.467 103.952L235.862 104.488L235.821 104.756L236.216 105.292L235.959 105.976L235.184 105.606L235.101 106.142L234.745 106.811L235.68 107.281L236.032 108.26L236.799 109.328L236.716 109.864L237.396 111.168L238.024 111.341L239.011 111.969L240.27 112.789L240.638 113.67L241.262 114.841L242.012 115.856L242.908 117.069L243.932 119.076L244.351 120.44L245.031 120.77L245.705 121.299L246.316 122.068L246.712 123.254L247.085 123.936L247.647 124.697L248.251 125.515L248.149 126.174L249.056 127.313L249.577 128.019L249.957 128.652L250.596 128.277L250.321 127.285L249.842 126.637L249.78 125.903L250.189 125.217L251.1 125.359L251.583 125.009C251.583 125.009 252.471 125.622 252.643 125.649C252.815 125.676 252.708 125.234 252.708 125.234L252.244 124.488Z" fill="#0A69F9"/>
<path d="M261.937 127.343L261.901 128.061L262.181 128.205L262.268 127.644L262.533 127.236L262.632 126.602L261.927 126.592L261.937 127.343Z" fill="#0A69F9"/>
<path d="M264.251 127.702L264.68 128.019L264.76 127.507L264.3 127.385L264.251 127.702Z" fill="#0A69F9"/>
<path d="M264.375 121.704L263.811 121.442L263.495 122.342L263.682 122.595L263.379 123.247L263.286 124.332L263.678 124.567L263.913 124.03L263.866 122.874L264.32 122.545L264.375 121.704Z" fill="#0A69F9"/>
<path d="M264.87 119.984L264.923 120.616L265.259 120.244L265.069 119.84L264.87 119.984Z" fill="#0A69F9"/>
<path d="M266.806 115.965L266.781 115.312L266.217 115.698L265.999 116.289L266.158 116.888L265.846 117.763L266.27 117.954L266.607 117.407L266.601 116.632L266.806 115.965Z" fill="#0A69F9"/>
<path d="M255.01 61.5952L254.362 61.2198L253.906 61.3986L253.785 62.1788L253.601 62.8743L253.978 63.2076L254.22 63.5948L254.146 64.2325L254.703 64.5438L254.654 63.8869L254.484 63.3611L254.855 62.5948L255.01 61.5952Z" fill="#0A69F9"/>
<path d="M267.651 68.0296L268.488 68.1597L269.109 67.7319L268.454 67.4053L267.748 67.5702L267.145 67.2269L266.623 67.3454L266.789 67.8957L267.651 68.0296Z" fill="#0A69F9"/>
<path d="M265.744 94.5756L265.867 93.9455L265.579 93.5262L265.259 94.1257L264.861 94.4134L265.194 94.8648L265.344 95.3624L265.196 95.9887L265.022 96.7856L265.334 97.2087L265.787 97.0543L265.92 96.201L266.346 95.8927L266.16 95.1397L265.744 94.5756Z" fill="#0A69F9"/>
<path d="M266.783 99.731L266.252 99.249L266.169 99.7854L266.487 100.01L266.783 99.731Z" fill="#0A69F9"/>
<path d="M267.749 110.868L267.809 110.477L267.881 110.014L267.505 110.006L267.387 110.761L267.289 111.395L267.806 111.476L267.749 110.868Z" fill="#0A69F9"/>
<path d="M270.544 66.1324L270.917 65.8408L270.458 65.8694L269.941 66.1137L270.15 66.3958L270.544 66.1324Z" fill="#0A69F9"/>
<path d="M227.802 18.7881L228.105 19.4344L228.372 20.4747L229.018 20.6999L229.526 20.3543L229.94 19.7946L229.656 19.3509L230.319 18.6549L230.353 17.7863L230.509 16.7867L230.032 16.2881L229.731 16.1164L229.39 16.3631L228.725 16.5843L228.128 17.016L228.045 17.8769L227.789 18.0619L227.802 18.7881Z" fill="#0A69F9"/>
<path d="M20.3083 46.1126L21.7931 45.6442L22.1548 45.1012L22.1814 44.2813L21.8709 44.0083L21.6304 43.4466L21.799 42.8486L21.9089 42.1415L21.4393 41.5941L21.2935 41.3967L20.9564 41.6189L21.2272 41.9856L21.0321 42.4297L20.4564 42.2404L20.4583 41.7413L20.108 41.562L20.1819 40.9242L19.7823 40.4127L19.3051 40.2386L19.0438 40.6225L18.4548 40.6808L17.8374 40.435L18.6193 43.3531L20.3083 46.1126Z" fill="#0A69F9"/>
<path d="M192.016 43.9882L191.544 43.9399L191.179 44.1827L191.311 44.9523L191.686 45.4601L192.137 44.831L192.224 44.2702L192.016 43.9882Z" fill="#0A69F9"/>
<path d="M187.046 46.7612L186.773 46.8936L187.161 47.1537L187.614 47.6485L187.618 47.6241L187.614 47.6485L187.885 47.366L187.713 47.0146L187.046 46.7612Z" fill="#0A69F9"/>
<path d="M9.59393 90.0667L10.2643 90.2957L9.70571 89.5098L9.67354 89.2301L9.58077 89.0159L9.48041 88.8505L8.7608 88.6138L7.99197 88.0448L7.56596 87.0547L7.99399 86.5719L8.28759 85.8186L8.29902 85.0962L8.2157 84.9834L8.02066 84.7783L7.99037 84.6487L8.28397 83.8953L7.92988 83.4158L8.02841 82.7819L7.5474 82.6323L7.42428 82.9377L7.03417 82.8521L6.50581 82.8449L6.25586 82.5064L6.06461 82.2769L5.80329 82.0116L5.62908 81.8347L5.45107 81.6822L4.69168 81.5392L4.24096 81.519L3.90579 81.2422L3.55167 81.0873L3.35284 80.9066L2.98732 81.1494L2.97213 81.5715L3.26944 81.7675L3.61977 81.9468L3.72577 82.5626L3.703 83.0335L3.52306 83.38L3.52112 83.8791L3.273 84.3399L2.82416 84.4699L2.74273 84.5072L2.71811 84.5034L2.40183 84.7539L2.00035 84.7414L1.97573 84.7376L1.63292 85.1587L1.68589 85.7912L1.76539 86.253L2.2956 86.7349L2.97168 86.7651L3.37128 86.6275L4.00381 86.4511L4.37877 86.6342L4.86732 87.0597L4.99418 87.3791L5.11158 87.5971L5.34449 87.883L5.92964 88.1737L6.59055 88.3014L7.33291 88.3918L7.5298 89.0716L7.63392 89.5373L8.4122 90.2076L9.22271 90.5084L9.59393 90.0667Z" fill="#0A69F9"/>
</g>
<defs>
<clipPath id="clip0_1_216">
<rect width="277" height="164" fill="white"/>
</clipPath>
</defs>
</svg>
