<svg width="165" height="165" viewBox="0 0 165 165" fill="none" xmlns="http://www.w3.org/2000/svg">
<path fill-rule="evenodd" clip-rule="evenodd" d="M30.9465 19H134.032C137.318 19 140.305 20.3435 142.475 22.5137C144.645 24.6839 145.988 27.6705 145.988 30.9568V134.042C145.988 137.328 144.645 140.315 142.475 142.485C140.315 144.645 137.318 145.999 134.032 145.999H30.9465C27.6602 145.999 24.6736 144.655 22.5033 142.485C20.3435 140.315 19 137.328 19 134.042V30.9465C19 27.6602 20.3435 24.6736 22.5137 22.5137C24.6736 20.3435 27.6602 19 30.9465 19ZM78.1435 93.9033C76.5726 93.4073 75.1362 92.6219 73.8134 91.5264C72.4079 90.3587 71.1471 88.8705 70.031 87.0207C69.5143 87.0517 69.0286 87.062 68.5532 87.062C67.7264 87.0723 66.8687 87.031 65.9696 86.969C62.4353 86.7106 59.769 85.7392 57.1131 84.7781C55.3872 84.1477 53.6614 83.5277 51.7909 83.1453C51.1191 83.0109 50.5198 83.0006 49.9927 83.0626C49.0936 83.197 48.3909 83.6413 47.8638 84.2924C47.2644 85.0158 46.8614 86.0079 46.6444 87.0827C46.4067 88.2711 46.386 89.5733 46.572 90.7927C46.7374 91.8778 47.0474 92.9836 47.4401 94.0584C47.8432 95.1745 48.3392 96.2492 48.8663 97.2517C49.3416 98.1818 49.879 99.0602 50.4681 99.8973C51.0571 100.745 51.7082 101.561 52.3903 102.336C54.6948 104.961 57.0821 106.739 59.4383 107.72C61.5878 108.619 63.7271 108.836 65.7629 108.464C67.8195 108.082 69.7933 107.069 71.6018 105.478C73.9271 103.442 75.9629 100.476 77.5441 96.6523C77.8128 96.0115 77.9678 95.3605 78.0505 94.6991C78.1228 94.4614 78.1435 94.1824 78.1435 93.9033ZM95.4535 87.0207C94.8334 88.5398 93.924 89.904 92.7149 91.1337C91.4334 92.4359 89.8419 93.5623 87.8991 94.5131C87.8784 95.0298 87.8578 95.5155 87.8061 95.9909C87.7441 96.8176 87.6407 97.6754 87.496 98.5538C86.938 102.047 85.7495 104.63 84.5611 107.193C83.786 108.867 83.0213 110.521 82.4839 112.35C82.2875 113.012 82.2255 113.601 82.2565 114.138C82.3185 115.047 82.7009 115.781 83.3003 116.36C83.972 117.021 84.9228 117.507 85.9769 117.817C87.1447 118.158 88.4365 118.292 89.6663 118.21C90.7617 118.137 91.8881 117.92 92.9939 117.621C94.141 117.311 95.2468 116.908 96.3009 116.463C97.2723 116.06 98.1921 115.605 99.0705 115.089C99.9696 114.572 100.827 113.993 101.664 113.384C104.475 111.317 106.439 109.085 107.627 106.821C108.702 104.754 109.115 102.636 108.909 100.579C108.702 98.5021 107.855 96.4456 106.429 94.5027C104.599 92.0122 101.809 89.7283 98.1404 87.8371C97.5307 87.5167 96.89 87.2997 96.2389 87.1757C96.0012 87.093 95.7325 87.0517 95.4535 87.0207ZM87.062 70.9921C88.6018 71.5502 90.0073 72.3976 91.2887 73.5447C92.6529 74.7745 93.8517 76.3143 94.8851 78.2055C95.3708 78.2055 95.8669 78.2158 96.3629 78.2365C97.2517 78.2675 98.0991 78.3295 98.9362 78.4225C102.429 78.8255 105.064 79.9003 107.689 80.9854C109.374 81.6675 111.048 82.3599 112.95 82.8249C112.97 82.8353 112.981 82.8353 113.012 82.8456C113.652 83.0006 114.231 83.0316 114.737 82.9799C115.647 82.8869 116.36 82.4632 116.918 81.8432C117.538 81.1404 117.982 80.169 118.251 79.0942C118.54 77.9161 118.602 76.614 118.478 75.3945C118.365 74.2888 118.096 73.183 117.755 72.0875C117.393 70.9611 116.949 69.8657 116.453 68.8322C116.009 67.8918 115.502 66.9824 114.954 66.1246C114.407 65.2772 113.797 64.4401 113.136 63.6134C110.945 60.8954 108.63 59.0353 106.315 57.9605C104.207 56.9891 102.067 56.6687 100.021 56.9581C97.9544 57.2577 95.9392 58.1878 94.0584 59.6967C91.6505 61.6292 89.4906 64.5228 87.7647 68.2638C87.4754 68.8942 87.2894 69.5453 87.1757 70.1964C87.1137 70.4444 87.0827 70.7131 87.062 70.9921ZM89.3562 76.459C87.7647 74.8675 85.5635 73.8857 83.135 73.8857C80.7064 73.8857 78.5052 74.8675 76.9137 76.459C75.3222 78.0505 74.3404 80.2517 74.3404 82.6802C74.3404 85.1088 75.3222 87.31 76.9137 88.8912C78.5052 90.4827 80.7064 91.4644 83.135 91.4644C85.5635 91.4644 87.7647 90.4723 89.3562 88.8912C90.9477 87.2997 91.9295 85.0985 91.9295 82.6802C91.9295 80.262 90.9374 78.0401 89.3562 76.459ZM71.0438 78.2468C71.5915 76.6967 72.4389 75.2912 73.5757 74.0097C74.7848 72.6559 76.335 71.4571 78.2261 70.4134C78.2261 69.9173 78.2261 69.4316 78.2468 68.9356C78.2778 68.0571 78.3398 67.1994 78.4328 66.3623C78.8255 62.8486 79.9003 60.2134 80.9647 57.5988C81.6571 55.8936 82.3495 54.1884 82.8043 52.3386C82.9696 51.6772 83.0109 51.0778 82.9489 50.5508C82.8559 49.6517 82.4219 48.9283 81.8018 48.3702C81.0888 47.7398 80.1277 47.3058 79.0529 47.0474C77.8748 46.7684 76.5726 46.696 75.3532 46.8304C74.2474 46.9544 73.1313 47.2128 72.0462 47.5641C70.9404 47.9155 69.845 48.3702 68.7909 48.8663C67.8505 49.3106 66.9514 49.817 66.0833 50.3751C65.2049 50.9435 64.3678 51.5429 63.5824 52.1939C60.8644 54.3951 59.0043 56.71 57.9295 59.0456C56.9581 61.1538 56.6377 63.293 56.9477 65.3289C57.2474 67.3957 58.1775 69.4109 59.6967 71.2815C61.6395 73.679 64.5331 75.8389 68.2845 77.5647C68.9149 77.8541 69.566 78.0401 70.2067 78.1435C70.4857 78.1951 70.7647 78.2261 71.0438 78.2468ZM82.4942 34.9046C108.785 34.9046 130.094 56.214 130.094 82.5046C130.094 108.795 108.785 130.105 82.4942 130.105C56.2036 130.105 34.8942 108.795 34.8942 82.5046C34.8942 56.214 56.2036 34.9046 82.4942 34.9046ZM130.673 28.8796C134.011 28.8796 136.708 31.5872 136.708 34.9149C136.708 38.2529 134.001 40.9502 130.673 40.9502C127.345 40.9502 124.638 38.2426 124.638 34.9149C124.638 31.5769 127.345 28.8796 130.673 28.8796ZM34.3052 28.8796C37.6432 28.8796 40.3404 31.5872 40.3404 34.9149C40.3404 38.2529 37.6328 40.9502 34.3052 40.9502C30.9672 40.9502 28.2699 38.2426 28.2699 34.9149C28.2699 31.5769 30.9775 28.8796 34.3052 28.8796ZM130.673 124.131C134.011 124.131 136.708 126.839 136.708 130.167C136.708 133.494 134.001 136.202 130.673 136.202C127.345 136.202 124.638 133.494 124.638 130.167C124.638 126.839 127.345 124.131 130.673 124.131ZM40.3508 130.167C40.3508 133.505 37.6432 136.202 34.3155 136.202C30.9775 136.202 28.2802 133.494 28.2802 130.167C28.2802 126.839 30.9878 124.131 34.3155 124.131C37.6432 124.131 40.3508 126.839 40.3508 130.167Z" fill="#0A69F9"/>
</svg>
