<svg width="164" height="164" viewBox="0 0 164 164" fill="none" xmlns="http://www.w3.org/2000/svg">
<path d="M47 96.8592V84.0775H77.5027V96.8592H47ZM47 110.38V103.408H83.2021V110.38H47ZM54.8104 122V47H82.1467C85.8056 47 89.0775 47.7042 91.9624 49.1127C94.9177 50.5211 97.4156 52.4225 99.4562 54.8169C101.567 57.2113 103.185 59.8873 104.311 62.8451C105.437 65.8028 106 68.831 106 71.9296C106 76.1549 105.05 80.169 103.15 83.9718C101.321 87.7747 98.6822 90.8732 95.2343 93.2676C91.7865 95.662 87.6351 96.8592 82.78 96.8592H69.2701V122H54.8104ZM69.2701 84.0775H81.8301C84.0113 84.0775 85.8056 83.5845 87.2129 82.5986C88.6202 81.6127 89.6404 80.2042 90.2737 78.3732C90.9773 76.4718 91.3292 74.3239 91.3292 71.9296C91.3292 69.3239 90.907 67.1056 90.0626 65.2747C89.2886 63.4437 88.1276 62.0704 86.5796 61.1549C85.102 60.2394 83.3077 59.7817 81.1968 59.7817H69.2701V84.0775Z" fill="#0A69F9"/>
<path d="M149.25 77.6455L149.25 101.299C149.25 104.128 146.954 106.424 144.125 106.424C141.296 106.424 139 104.128 139 101.299L139 77.625C139 74.796 141.296 72.5 144.125 72.5C146.954 72.5205 149.25 74.8165 149.25 77.6455Z" fill="#0A69F9"/>
<path d="M74.7985 141.597C61.5145 141.597 51.9 141.597 44.1305 140.551C35.213 139.362 29.1655 136.738 24.512 132.085C19.8585 127.431 17.255 121.384 16.0455 112.466C15 104.676 15 95.0825 15 81.7985C15 68.5145 15 58.9 16.0455 51.1305C17.2345 42.213 19.8585 36.1655 24.512 31.512C29.1655 26.8585 35.213 24.255 44.1305 23.0455C51.9205 22 61.5145 22 74.7985 22C88.0825 22 97.697 22 105.466 23.0455C114.384 24.2345 120.431 26.8585 125.085 31.512C129.738 36.1655 132.342 42.213 133.551 51.1305C134.597 58.9205 134.597 68.5145 134.597 81.7985C134.597 95.0825 134.597 104.697 133.551 112.466C132.362 121.384 129.738 127.431 125.085 132.085C120.431 136.738 114.384 139.342 105.466 140.551C97.697 141.597 88.0825 141.597 74.7985 141.597ZM74.7985 32.25C50.465 32.25 38.2675 32.25 31.769 38.7485C25.2705 45.247 25.2705 57.465 25.2705 81.778C25.2705 106.111 25.2705 118.309 31.769 124.807C38.2675 131.306 50.4855 131.306 74.7985 131.306C99.132 131.306 111.33 131.306 117.828 124.807C124.327 118.309 124.326 106.091 124.326 81.778C124.326 57.4445 124.327 45.247 117.828 38.7485C111.33 32.25 99.132 32.25 74.7985 32.25Z" fill="#0A69F9"/>
</svg>
