<svg width="128" height="133" viewBox="0 0 128 133" fill="none" xmlns="http://www.w3.org/2000/svg">
<g clip-path="url(#clip0_76_1057)">
<path d="M319.867 -8.19715L295.275 75.7471C172.875 110.994 84.5321 162.381 17.8106 238.627C29.1319 219.519 42.6804 200.69 58.1776 182.231C85.2745 149.952 118.96 118.6 158.306 89.0112C223.914 39.4795 289.986 6.36556 319.867 -8.19715ZM332.116 -22.5743C303.07 -7.54785 47.5058 102.832 -19.2157 300.402C48.341 196.516 145.778 126.021 301.493 81.9618L332.116 -22.5743Z" fill="#74C41E"/>
<path d="M293.697 -101.602L259.919 2.93363C90.0994 51.8161 19.2948 126.485 -49.3754 226.476C-33.2286 195.031 -13.8339 164.329 8.53028 134.74C41.5662 91.1447 81.4692 49.4044 127.218 10.8179C196.353 -47.4329 261.033 -84.2571 293.697 -101.602ZM306.782 -117C268.085 -96.8719 -0.00709534 37.0679 -89 300.402C1.10648 161.825 58.3626 67.9556 265.951 9.14828L306.782 -117Z" fill="#74C41E"/>
</g>
<defs>
<clipPath id="clip0_76_1057">
<rect width="128" height="133" fill="white"/>
</clipPath>
</defs>
</svg>
