<svg width="607" height="91" viewBox="0 0 607 91" fill="none" xmlns="http://www.w3.org/2000/svg">
<g clip-path="url(#clip0_1_1160)">
<path d="M159.124 73.7084C159.124 70.3151 160.098 67.3643 161.988 64.8267C163.908 62.2891 166.566 60.3121 169.962 58.8958C173.358 57.4794 177.316 56.7418 181.834 56.7418C184.049 56.7418 186.323 56.9188 188.597 57.2434C190.871 57.568 192.88 58.1286 194.563 58.8663V55.9451C194.563 52.6993 193.589 50.1912 191.639 48.4208C189.69 46.6503 186.766 45.7356 182.868 45.7356C179.915 45.7356 177.109 46.2372 174.481 47.2405C171.852 48.2437 169.106 49.6896 166.211 51.578L161.988 42.8144C165.414 40.4538 168.958 38.7424 172.65 37.6212C176.312 36.4999 180.181 35.9688 184.197 35.9688C191.728 35.9688 197.605 37.7982 201.828 41.4866C206.022 45.175 208.148 50.4863 208.148 57.4499V74.0625C208.148 75.4493 208.385 76.4525 208.916 77.0427C209.418 77.6328 210.245 78.0164 211.397 78.1344V89.1406C210.186 89.3472 209.093 89.5242 208.119 89.6422C207.144 89.7602 206.317 89.8193 205.638 89.7602C202.95 89.7602 200.913 89.1701 199.525 87.9898C198.137 86.8095 197.31 85.3637 197.044 83.5933L196.749 80.8786C194.386 83.8293 191.492 86.1309 188.066 87.7243C184.64 89.3472 181.126 90.1438 177.582 90.1438C174.038 90.1438 170.937 89.4062 168.131 87.9603C165.325 86.5145 163.14 84.508 161.575 82.0294C160.01 79.5213 159.212 76.7476 159.212 73.7084H159.124ZM192.023 76.246C192.762 75.5968 193.382 74.8296 193.854 73.9739C194.327 73.1182 194.563 72.4101 194.563 71.8199V66.5972C192.939 65.948 191.196 65.4464 189.306 65.0628C187.416 64.7087 185.644 64.5317 183.961 64.5317C180.446 64.5317 177.582 65.2693 175.337 66.7447C173.093 68.22 171.97 70.1675 171.97 72.5871C171.97 73.8854 172.354 75.1542 173.093 76.364C173.831 77.5738 174.894 78.5475 176.282 79.2557C177.67 79.9639 179.354 80.3475 181.391 80.3475C183.429 80.3475 185.408 79.9639 187.357 79.1672C189.306 78.3705 190.901 77.3968 192.112 76.2165L192.023 76.246Z" fill="#1D293A"/>
<path d="M252.3 47.9784C248.136 48.0374 244.415 48.8341 241.196 50.339C237.976 51.8438 235.614 54.0864 234.137 57.0371V89.1114H220.7V36.7657H233.133V47.5653C235.023 43.9359 237.415 41.0737 240.339 38.9787C243.263 36.8837 246.334 35.7625 249.583 35.5559C250.262 35.6149 250.794 35.6444 251.207 35.6149C251.621 35.5854 251.975 35.6149 252.33 35.7625V47.9784H252.3Z" fill="#1D293A"/>
<path d="M259.771 35.4674V22.1597H273.209V35.4674H259.771ZM259.771 89.1409V47.3883L273.209 36.3231V89.1409H259.771Z" fill="#1D293A"/>
<path d="M281.892 73.7084C281.892 70.3151 282.867 67.3643 284.786 64.8267C286.706 62.2891 289.364 60.3121 292.76 58.8958C296.157 57.4794 300.114 56.7418 304.633 56.7418C306.847 56.7418 309.122 56.9188 311.396 57.2434C313.67 57.568 315.678 58.1286 317.361 58.8663V55.9451C317.361 52.6993 316.387 50.1912 314.437 48.4208C312.488 46.6503 309.565 45.7356 305.666 45.7356C302.713 45.7356 299.907 46.2372 297.279 47.2405C294.65 48.2437 291.874 49.6896 289.01 51.578L284.757 42.8144C288.183 40.4538 291.727 38.7424 295.418 37.6212C299.08 36.4999 302.949 35.9688 306.966 35.9688C314.497 35.9688 320.374 37.7982 324.567 41.4866C328.761 45.175 330.887 50.4863 330.887 57.4499V74.0625C330.887 75.4493 331.153 76.4525 331.655 77.0427C332.157 77.6328 332.984 78.0164 334.136 78.1344V89.1406C332.925 89.3472 331.832 89.5242 330.858 89.6422C329.883 89.7898 329.056 89.8193 328.377 89.7602C325.69 89.7602 323.652 89.1701 322.264 87.9898C320.876 86.8095 320.049 85.3637 319.783 83.5933L319.488 80.8786C317.125 83.8293 314.231 86.1309 310.805 87.7243C307.379 89.3472 303.865 90.1438 300.291 90.1438C296.718 90.1438 293.646 89.4062 290.87 87.9603C288.064 86.5145 285.879 84.508 284.314 82.0294C282.749 79.5213 281.951 76.7476 281.951 73.7084H281.892ZM314.792 76.246C315.53 75.5968 316.15 74.8296 316.623 73.9739C317.095 73.1182 317.332 72.4101 317.332 71.8199V66.5972C315.707 65.948 313.965 65.4464 312.075 65.0628C310.185 64.7087 308.413 64.5317 306.729 64.5317C303.215 64.5317 300.35 65.2693 298.106 66.7447C295.861 68.22 294.739 70.1675 294.739 72.5871C294.739 73.8854 295.123 75.1542 295.861 76.364C296.6 77.5738 297.663 78.5475 299.051 79.2557C300.439 79.9639 302.122 80.3475 304.16 80.3475C306.198 80.3475 308.176 79.9639 310.126 79.1672C312.075 78.3705 313.67 77.3968 314.88 76.2165L314.792 76.246Z" fill="#1D293A"/>
<path d="M355.783 89.1408L336.292 36.7952H350.231L363.757 76.9544L377.077 36.7952H389.894L370.402 89.1408H355.754H355.783Z" fill="#1D293A"/>
<path d="M419.782 90.1441C415.529 90.1441 411.719 89.436 408.264 87.9901C404.838 86.5738 401.915 84.5968 399.493 82.1182C397.071 79.6396 395.211 76.7774 393.941 73.5906C392.671 70.4039 392.021 66.981 392.021 63.3221C392.021 58.3944 393.143 53.8504 395.417 49.7194C397.662 45.5588 400.881 42.2245 405.015 39.7459C409.15 37.2673 414.112 35.9985 419.9 35.9985C425.689 35.9985 430.532 37.2378 434.637 39.7459C438.742 42.254 441.902 45.5293 444.117 49.5718C446.332 53.6438 447.454 58.0699 447.454 62.85C447.454 63.7057 447.425 64.5319 447.366 65.2991C447.307 66.0663 447.218 66.7155 447.159 67.2466H406.374C406.581 70.0203 407.319 72.3513 408.648 74.2988C409.947 76.2463 411.631 77.7216 413.698 78.7839C415.766 79.8461 417.921 80.3478 420.225 80.3478C422.972 80.3478 425.57 79.6986 427.963 78.3708C430.355 77.0725 431.979 75.302 432.865 73.0595L444.383 76.2758C443.172 78.9609 441.4 81.351 439.038 83.446C436.675 85.541 433.899 87.1639 430.65 88.3442C427.431 89.5245 423.828 90.1146 419.841 90.1146L419.782 90.1441ZM405.961 58.778H433.633C433.367 56.1519 432.599 53.8799 431.359 51.9324C430.119 49.9849 428.465 48.4801 426.456 47.3883C424.448 46.2965 422.174 45.7654 419.693 45.7654C417.213 45.7654 415.057 46.2965 413.078 47.3883C411.099 48.4801 409.475 49.9849 408.235 51.9324C406.994 53.8799 406.226 56.1519 405.961 58.778Z" fill="#1D293A"/>
<path d="M504.896 89.1411H491.37V59.929C491.37 55.739 490.631 52.6997 489.184 50.7818C487.737 48.8638 485.67 47.8901 482.982 47.8901C481.181 47.8901 479.32 48.3622 477.489 49.2769C475.629 50.1916 474.004 51.4604 472.557 53.0538C471.11 54.6767 469.988 56.5062 469.19 58.6307V89.1411H455.753V36.7659H467.98V46.5328C469.338 44.2607 471.051 42.3723 473.118 40.8379C475.215 39.3035 477.607 38.1232 480.295 37.238C482.982 36.3823 485.877 35.9397 488.978 35.9397C492.285 35.9397 494.973 36.5298 497.099 37.6806C499.225 38.8314 500.85 40.4248 501.943 42.4313C503.065 44.4378 503.833 46.6508 504.276 49.0704C504.719 51.49 504.925 53.939 504.925 56.3881V89.1116L504.896 89.1411Z" fill="#1D293A"/>
<path d="M548.103 86.5147C546.892 87.0459 545.504 87.6065 543.909 88.1671C542.314 88.7278 540.601 89.1999 538.77 89.5835C536.91 89.9671 535.049 90.1441 533.159 90.1441C530.59 90.1441 528.286 89.7015 526.189 88.8458C524.092 87.9901 522.438 86.6033 521.198 84.6853C519.958 82.7968 519.338 80.3182 519.338 77.2495V47.0637H512.486V36.7657L532.982 19.6221V36.7657H544.086V47.0637H532.982V72.6464C533.041 74.4463 533.543 75.7446 534.488 76.5708C535.433 77.397 536.644 77.8101 538.12 77.8101C539.479 77.8101 540.808 77.5446 542.167 77.043C543.525 76.5413 544.618 76.0987 545.504 75.6856L548.132 86.4852L548.103 86.5147Z" fill="#1D293A"/>
<path d="M578.876 90.1442C574.564 90.1442 570.725 89.4065 567.328 87.9606C563.932 86.5148 561.008 84.5083 558.587 81.9707C556.165 79.4331 554.334 76.5709 553.094 73.3546C551.853 70.1383 551.233 66.7155 551.233 63.1451C551.233 59.5748 551.853 55.9159 553.094 52.6701C554.334 49.4243 556.165 46.5326 558.557 44.054C560.949 41.5754 563.873 39.5984 567.299 38.1821C570.725 36.7658 574.564 36.0281 578.817 36.0281C583.07 36.0281 587.086 36.7362 590.482 38.1821C593.879 39.5984 596.802 41.5754 599.224 44.054C601.646 46.5621 603.506 49.4243 604.776 52.6701C606.046 55.9159 606.696 59.4272 606.696 63.1451C606.696 66.863 606.046 70.1383 604.776 73.3546C603.506 76.5709 601.646 79.4626 599.224 81.9707C596.802 84.5083 593.879 86.4853 590.482 87.9606C587.086 89.4065 583.217 90.1442 578.935 90.1442H578.876ZM565.054 63.1156C565.054 66.0958 565.645 68.7515 566.856 71.1416C568.067 73.5021 569.75 75.3611 571.847 76.6889C573.973 78.0167 576.306 78.6659 578.876 78.6659C581.445 78.6659 583.749 77.9872 585.846 76.6299C587.942 75.2726 589.596 73.4431 590.837 71.0825C592.077 68.7515 592.697 66.0663 592.697 63.0271C592.697 59.9879 592.077 57.3912 590.837 55.0602C589.596 52.7291 587.913 50.8702 585.846 49.5128C583.778 48.1555 581.416 47.4768 578.787 47.4768C576.159 47.4768 573.914 48.1555 571.817 49.5128C569.721 50.8702 568.067 52.6996 566.856 55.0602C565.645 57.3912 565.054 60.0764 565.054 63.1156Z" fill="#1D293A"/>
<path d="M60.8672 91H108.415V82.2954L60.8672 91Z" fill="#0A69F9"/>
<path d="M45.6582 91.0001C50.5607 83.4463 89.367 78.3415 100.678 75.1252L102.893 61.729C100.796 62.8208 50.5016 76.6301 45.6582 91.0001Z" fill="#0A69F9"/>
<path d="M30.4482 90.9999C40.2827 75.8922 70.2882 65.6533 92.94 59.2502L97.3995 41.1624C93.1763 43.3459 40.1646 62.2895 30.4778 90.9999H30.4482Z" fill="#0A69F9"/>
<path d="M15.21 90.9999C29.9469 68.3385 51.2107 52.9947 85.1736 43.3754L91.8481 20.5664C85.528 23.8417 29.7697 47.9195 15.21 90.9999Z" fill="#0A69F9"/>
<path d="M86.3249 0C77.8785 4.39656 19.4032 33.5791 0 91C19.669 60.7847 32.1614 40.3067 77.4355 27.5006L86.3249 0Z" fill="#0A69F9"/>
</g>
<defs>
<clipPath id="clip0_1_1160">
<rect width="606.667" height="91" fill="white"/>
</clipPath>
</defs>
</svg>
